<svg width="1025" height="125" viewBox="0 0 1025 125" fill="none" xmlns="http://www.w3.org/2000/svg">
<path d="M1025 81.6221C1025 43.6395 1025 62.2267 1025 11.295C1014.82 4.36904 1003.38 0 991.148 0C960.201 2.13523 948.283 13.8022 926.3 31.8365C921.639 35.6614 916.884 39.8935 910.918 41.0763C902.187 42.8045 893.836 37.5739 885.477 34.5631C870.328 29.1021 852.575 31.1298 839.111 39.8474C826.464 48.0427 804.222 89.8282 790.175 95.4428C777.549 100.489 763.137 98.0927 750.088 94.1909C737.04 90.2891 724.218 84.9202 710.6 84.1368C701.126 83.5992 690.922 85.7651 683.3 91.518C571.408 139 568.483 96.0342 551 115.405C551 115.405 551.066 136.366 551.16 139H1025V81.6221Z" fill="url(#paint0_linear_2554_22395)"/>
<g opacity="0.4">
<path d="M60.9132 10H43.4551V124.416H60.9132V10Z" fill="#D2D3FF"/>
<path d="M98.3085 10H60.9199V124.416H98.3085V10Z" fill="url(#paint1_linear_2554_22395)"/>
<path d="M93.5763 17.3169H64.6152V20.6639H93.5763V17.3169Z" fill="url(#paint2_linear_2554_22395)"/>
<path d="M93.5763 27.7749H64.6152V31.1219H93.5763V27.7749Z" fill="url(#paint3_linear_2554_22395)"/>
<path d="M93.5763 37.7451H64.6152V41.0922H93.5763V37.7451Z" fill="url(#paint4_linear_2554_22395)"/>
<path d="M93.5763 48.7075H64.6152V52.0546H93.5763V48.7075Z" fill="url(#paint5_linear_2554_22395)"/>
<path d="M93.5763 58.542H64.6152V61.889H93.5763V58.542Z" fill="url(#paint6_linear_2554_22395)"/>
<path d="M54.553 16.2261H49.8945V90.8068H54.553V16.2261Z" fill="url(#paint7_linear_2554_22395)"/>
<path d="M54.5509 27.4668H50.209V28.2189H54.5509V27.4668Z" fill="#E9EAFF"/>
<path d="M54.5509 42.5337H50.209V43.2858H54.5509V42.5337Z" fill="#E9EAFF"/>
<path d="M54.5509 57.603H50.209V58.3552H54.5509V57.603Z" fill="#E9EAFF"/>
<path d="M54.5509 72.6709H50.209V73.423H54.5509V72.6709Z" fill="#E9EAFF"/>
<path d="M50.7844 16.2261H49.6387V90.8068H50.7844V16.2261Z" fill="#9792FF"/>
<path d="M43.4615 21.061H18.8574V124.409H43.4615V21.061Z" fill="url(#paint8_linear_2554_22395)"/>
<path d="M23.1918 21.061H18.8574V29.4447H23.1918V21.061Z" fill="url(#paint9_linear_2554_22395)"/>
<path d="M23.1918 29.4448H18.8574V41.9038H23.1918V29.4448Z" fill="#D2D3FF"/>
<path d="M23.1918 41.9116H18.8574V59.0023H23.1918V41.9116Z" fill="#D2D3FF"/>
<path d="M23.1918 58.9941H18.8574V81.4533H23.1918V58.9941Z" fill="url(#paint10_linear_2554_22395)"/>
<path d="M23.1918 81.4536H18.8574V90.8072H23.1918V81.4536Z" fill="url(#paint11_linear_2554_22395)"/>
<path d="M27.6486 21.061H26.9551V90.8071H27.6486V21.061Z" fill="url(#paint12_linear_2554_22395)"/>
<path d="M165.829 88.837C165.822 86.6791 165.098 85.2053 164.043 83.6865C163.545 82.9722 162.965 82.2955 162.663 81.4759C162.43 80.8443 162.384 80.1526 162.377 79.4759C162.354 77.4307 162.694 75.3931 162.558 73.3554C162.43 71.3178 161.744 69.1824 160.116 67.9418C159.234 67.2651 158.11 66.9793 157.002 67.0169C157.002 67.0169 156.98 67.0169 156.965 67.0169C156.95 67.0169 156.942 67.0169 156.927 67.0169C155.819 66.9793 154.696 67.2651 153.814 67.9418C152.193 69.1824 151.5 71.3178 151.371 73.3554C151.243 75.3931 151.575 77.4307 151.552 79.4759C151.552 80.1526 151.5 80.8368 151.266 81.4759C150.964 82.2955 150.384 82.9722 149.886 83.6865C148.839 85.2053 148.115 86.6791 148.1 88.837C148.055 97.5665 152.887 99.8072 156.919 99.7997C156.919 99.7997 156.942 99.7997 156.957 99.7997C156.972 99.7997 156.98 99.7997 156.995 99.7997C161.028 99.7997 165.86 97.5665 165.814 88.837H165.829Z" fill="#9792FF"/>
<path d="M156.637 77.9043H156.26V124.417H156.637V77.9043Z" fill="url(#paint13_linear_2554_22395)"/>
<path d="M18.8584 68.0547H0.59375V124.417H18.8584V68.0547Z" fill="url(#paint14_linear_2554_22395)"/>
<path d="M18.8481 68.0547H9.84766V124.417H18.8481V68.0547Z" fill="url(#paint15_linear_2554_22395)"/>
<path d="M0.599933 68.0547H-8.72461V124.417H0.599933V68.0547Z" fill="#73A9B5"/>
<path d="M0.599933 68.0547H-8.72461V124.417H0.599933V68.0547Z" fill="url(#paint16_linear_2554_22395)"/>
<path d="M8.62841 71.9946H3.89453V78.5361H8.62841V71.9946Z" fill="url(#paint17_linear_2554_22395)"/>
<path d="M6.52543 71.979H5.99023V78.5581H6.52543V71.979Z" fill="#9792FF"/>
<path d="M8.8999 84.2354H4.16602V90.7769H8.8999V84.2354Z" fill="url(#paint18_linear_2554_22395)"/>
<path d="M6.79301 84.2275H6.25781V90.8066H6.79301V84.2275Z" fill="#9792FF"/>
<path d="M9.16162 96.4829H4.42773V103.024H9.16162V96.4829Z" fill="url(#paint19_linear_2554_22395)"/>
<path d="M7.0684 96.4678H6.5332V103.047H7.0684V96.4678Z" fill="#9792FF"/>
<path d="M9.4331 108.723H4.69922V115.265H9.4331V108.723Z" fill="url(#paint20_linear_2554_22395)"/>
<path d="M7.33207 108.717H6.79688V115.296H7.33207V108.717Z" fill="#9792FF"/>
<path d="M35.0277 90.8076H15.5117V124.41H35.0277V90.8076Z" fill="#D2D3FF"/>
<path d="M35.0277 90.8076H15.5117V93.1092H35.0277V90.8076Z" fill="url(#paint21_linear_2554_22395)"/>
<path d="M72.8571 90.8076H35.0312V124.41H72.8571V90.8076Z" fill="url(#paint22_linear_2554_22395)"/>
<path d="M72.8571 90.8076H35.0312V93.1092H72.8571V90.8076Z" fill="url(#paint23_linear_2554_22395)"/>
<path d="M66.0444 109.522H40.9805V124.418H66.0444V109.522Z" fill="#D2D3FF"/>
<path d="M46.6504 109.522H46.2734V124.418H46.6504V109.522Z" fill="url(#paint24_linear_2554_22395)"/>
<path d="M51.6054 109.522H51.2285V124.418H51.6054V109.522Z" fill="url(#paint25_linear_2554_22395)"/>
<path d="M56.1797 109.522H55.8027V124.41H56.1797V109.522Z" fill="url(#paint26_linear_2554_22395)"/>
<path d="M60.9101 109.522H60.5332V124.41H60.9101V109.522Z" fill="url(#paint27_linear_2554_22395)"/>
<path d="M66.0444 106.515H40.9805V108.711H66.0444V106.515Z" fill="#D2D3FF"/>
<path d="M23.5941 112.365H20.2773V123.921H23.5941V112.365Z" fill="url(#paint28_linear_2554_22395)"/>
<path d="M23.254 113.094H20.2539V112.365H23.5933V123.929H23.254V113.094Z" fill="url(#paint29_linear_2554_22395)"/>
<path d="M23.6234 113.952H20.2539V114.343H23.6234V113.952Z" fill="url(#paint30_linear_2554_22395)"/>
<path d="M30.2581 112.365H26.9414V123.921H30.2581V112.365Z" fill="url(#paint31_linear_2554_22395)"/>
<path d="M29.9181 113.094H26.918V112.365H30.2573V123.929H29.9181V113.094Z" fill="url(#paint32_linear_2554_22395)"/>
<path d="M30.2875 113.945H26.918V114.336H30.2875V113.945Z" fill="url(#paint33_linear_2554_22395)"/>
<path d="M73.5466 87.9805H14.8027V90.7784H73.5466V87.9805Z" fill="#D2D3FF"/>
<path d="M108.29 41.0991H98.2949V124.417H108.29V41.0991Z" fill="url(#paint34_linear_2554_22395)"/>
<path d="M122.77 41.0991H108.289V124.417H122.77V41.0991Z" fill="url(#paint35_linear_2554_22395)"/>
<path d="M104.114 45.5283H98.2949V57.897H104.114V45.5283Z" fill="url(#paint36_linear_2554_22395)"/>
<g opacity="0.55">
<path d="M104.115 57.8955H103.361V62.5347H104.115V57.8955Z" fill="#E9EAFF"/>
<path d="M104.115 67.9038H103.361V72.543H104.115V67.9038Z" fill="#E9EAFF"/>
<path d="M104.115 77.9106H103.361V82.5499H104.115V77.9106Z" fill="#E9EAFF"/>
<path d="M104.115 87.9268H103.361V92.566H104.115V87.9268Z" fill="#E9EAFF"/>
<path d="M104.115 97.9351H103.361V102.574H104.115V97.9351Z" fill="#E9EAFF"/>
<path d="M104.115 107.942H103.361V112.581H104.115V107.942Z" fill="#E9EAFF"/>
<path d="M104.115 117.949H103.361V122.588H104.115V117.949Z" fill="#E9EAFF"/>
</g>
<path d="M115.601 110.469C114.297 110.469 113.234 111.514 113.234 112.807V124.409H117.968V112.807C117.968 111.514 116.913 110.469 115.601 110.469Z" fill="url(#paint37_linear_2554_22395)"/>
<path d="M115.605 110.469V124.416" stroke="#9792FF" stroke-width="1.67677"/>
<path d="M118.034 114.267H113.277" stroke="#9792FF" stroke-width="1.67677"/>
<path d="M150.749 85.8896H122.232V124.409H150.749V85.8896Z" fill="url(#paint38_linear_2554_22395)"/>
<path d="M127.313 85.8896H122.232V124.409H127.313V85.8896Z" fill="url(#paint39_linear_2554_22395)"/>
<path d="M133.461 89.9199H130.197V94.1695H133.461V89.9199Z" fill="#E9EAFF"/>
<path d="M140.641 89.9199H137.377V94.1695H140.641V89.9199Z" fill="#E9EAFF"/>
<path d="M146.979 89.9199H143.715V94.1695H146.979V89.9199Z" fill="#E9EAFF"/>
<path d="M135.737 77.9043H122.779V85.897H135.737V77.9043Z" fill="url(#paint40_linear_2554_22395)"/>
<path d="M127.31 77.9043H122.779V85.897H127.31V77.9043Z" fill="url(#paint41_linear_2554_22395)"/>
<path d="M131.741 81.6484H130.113V85.898H131.741V81.6484Z" fill="#E9EAFF"/>
<path d="M133.534 81.6484H131.906V85.898H133.534V81.6484Z" fill="#E9EAFF"/>
</g>
<path d="M117.129 53.5025C117.129 53.5024 117.129 53.5024 117.14 53.4732L117.134 53.5068L136.698 60.4221L136.709 60.4268C136.729 60.4359 136.76 60.4504 136.801 60.4702C136.884 60.51 137.003 60.5706 137.147 60.6514C137.435 60.8143 137.807 61.0527 138.158 61.3588C138.877 61.9868 139.372 62.7718 139.156 63.7148C138.895 64.8557 138.402 65.3185 137.854 65.4936C137.236 65.6909 136.362 65.5879 135.24 65.1729C134.073 64.7415 129.164 62.9911 124.554 61.3511C122.247 60.5306 120.013 59.7369 118.355 59.1483L116.365 58.4416L115.812 58.2455L115.667 58.194L115.63 58.1808L115.62 58.1775L115.618 58.1766L115.617 58.1764C115.617 58.1764 115.617 58.1763 115.4 58.7889L115.617 58.1763L115.608 58.173L115.602 58.1712L115.593 58.1681C115.583 58.1643 115.564 58.1573 115.539 58.1468C115.488 58.1256 115.411 58.0908 115.318 58.0401C115.131 57.9376 114.89 57.7762 114.671 57.5411C114.259 57.099 113.858 56.3338 114.173 54.9938C114.33 54.3278 114.597 53.9487 114.864 53.7249C115.135 53.4976 115.459 53.3866 115.798 53.3479C116.14 53.3087 116.477 53.3463 116.737 53.3984C116.864 53.4239 116.968 53.452 117.037 53.4728C117.072 53.4832 117.098 53.4917 117.114 53.497L117.129 53.5025C117.13 53.5027 117.13 53.5028 117.13 53.5029L117.13 53.5029L117.13 53.5026L117.129 53.5025Z" fill="white" stroke="#5E23DC" stroke-width="1.3"/>
<path fill-rule="evenodd" clip-rule="evenodd" d="M132.434 62.3203C133.385 62.3203 134.156 63.4039 134.156 64.7406V80.5723C134.156 81.909 133.385 82.9926 132.434 82.9926C131.482 82.9926 130.711 81.909 130.711 80.5723V64.7406C130.711 63.4039 131.482 62.3203 132.434 62.3203Z" fill="white" stroke="#5E23DC" stroke-width="1.2" stroke-miterlimit="10" stroke-linecap="round"/>
<path d="M86.1708 35.8789C86.1708 35.8789 85.4383 40.8512 86.1708 43.5698C86.1708 43.5698 80.2054 43.7036 79.2757 49.4014C79.2757 49.4014 78.6137 51.9861 82.7197 51.9227C86.8257 51.8593 92.5939 50.7959 92.5939 50.7959C92.5939 50.7959 97.1014 41.7809 97.038 41.2526C96.9746 40.7244 95.714 34.2238 95.6435 34.0266C95.5731 33.8294 93.7208 31.3784 93.7208 31.3784L86.1637 35.8859L86.1708 35.8789Z" fill="#F9739C"/>
<path d="M94.034 38.8022C94.034 38.8022 93.3016 43.7745 94.034 46.4931C94.034 46.4931 88.0686 46.6269 87.139 52.3247C87.139 52.3247 86.4769 54.9095 90.583 54.8461C94.689 54.7827 100.457 53.7192 100.457 53.7192C100.457 53.7192 104.965 44.7042 104.901 44.176C104.838 43.6478 103.577 37.1471 103.507 36.9499C103.436 36.7527 101.584 34.3018 101.584 34.3018L94.027 38.8093L94.034 38.8022Z" fill="#FF98CD"/>
<path d="M110.473 36.2178L111.6 46.0286C111.6 46.0286 112.128 48.2824 109.677 52.5926C107.226 56.9029 103.578 61.0794 103.578 61.0794C103.578 61.0794 97.676 60.8822 99.1339 53.3251L101.719 46.9583C101.719 46.9583 103.24 38.4081 99.3311 36.2178H110.466H110.473Z" fill="#FFAAD6"/>
<path d="M28.5793 51.4649C28.5793 51.4649 58.5048 31.8784 61.0896 29.0965C63.6744 26.3145 81.5705 11.799 91.6138 21.0393C91.6138 21.0393 101.256 18.2574 105.636 26.4061C105.636 26.4061 118.363 26.0117 125.723 38.3368C133.083 50.662 133.674 57.2261 133.674 57.2261C133.674 57.2261 127.413 60.2123 123.434 54.2398C120.553 47.9787 117.666 43.1049 117.666 43.1049C117.666 43.1049 110.306 32.3644 93.5013 40.7174C76.6968 49.0703 90.3179 59.4094 90.3179 59.4094C90.3179 59.4094 101.551 66.072 114.278 60.501C127.005 54.93 130.287 62.7196 130.287 62.7196C130.287 62.7196 131.477 64.3747 127.899 64.9733C124.321 65.572 113.285 69.847 109.602 71.8332C105.918 73.8193 100.157 77.1013 78.0843 73.6221C69.2383 72.2276 63.2659 74.1221 49.1518 79.9889L43.6865 82.9751L28.5723 51.4579L28.5793 51.4649Z" fill="#FFAAD6"/>
<path fill-rule="evenodd" clip-rule="evenodd" d="M105.658 26.758L105.656 26.7581L105.647 26.7586L105.609 26.761C105.576 26.7633 105.524 26.767 105.455 26.7726C105.316 26.7838 105.106 26.8024 104.825 26.8323C104.263 26.8921 103.414 26.9968 102.277 27.1759C100.002 27.5341 96.5709 28.1903 91.9578 29.3814C91.7695 29.43 91.5775 29.3167 91.5288 29.1284C91.4802 28.9401 91.5935 28.748 91.7818 28.6994C96.4161 27.5029 99.8694 26.8421 102.167 26.4802C103.316 26.2992 104.176 26.193 104.751 26.132C105.038 26.1015 105.253 26.0822 105.398 26.0706C105.471 26.0647 105.525 26.0608 105.562 26.0583L105.604 26.0556L105.615 26.055L105.618 26.0548L105.619 26.0547C105.619 26.0547 105.62 26.0547 105.639 26.4063L105.619 26.0547C105.813 26.0441 105.98 26.193 105.99 26.3872C106.001 26.5813 105.852 26.7473 105.658 26.758Z" fill="#C777AA"/>
<path fill-rule="evenodd" clip-rule="evenodd" d="M91.967 20.9672C92.007 21.1575 91.8852 21.3443 91.6949 21.3843L91.6224 21.0397L91.5498 20.6951C91.7402 20.6551 91.9269 20.7769 91.967 20.9672ZM91.5498 20.6951C91.5499 20.6951 91.5498 20.6951 91.6224 21.0397L91.6949 21.3843L91.6893 21.3855L91.6716 21.3893L91.6011 21.4045C91.5389 21.4181 91.4469 21.4383 91.3285 21.4651C91.0918 21.5187 90.7494 21.5981 90.3284 21.7016C89.4862 21.9086 88.3306 22.2113 87.0768 22.5941C84.5493 23.3657 81.6917 24.4432 80.1601 25.6868C80.0091 25.8094 79.7873 25.7864 79.6647 25.6354C79.5421 25.4844 79.5651 25.2626 79.7161 25.14C81.3679 23.7989 84.3524 22.6895 86.8712 21.9205C88.1406 21.5329 89.3092 21.2268 90.1603 21.0177C90.586 20.913 90.9327 20.8325 91.1732 20.7782C91.2935 20.751 91.3873 20.7303 91.4512 20.7164L91.5242 20.7006L91.5431 20.6965L91.5498 20.6951Z" fill="#C777AA"/>
<path d="M30.7397 47.8872C30.7397 47.8872 47.84 69.164 48.3753 82.9893L-7.04574 133.924C-7.04574 133.924 -56.2619 116.401 -42.6056 82.9893L30.7397 47.8872Z" fill="#8448FB"/>
<path fill-rule="evenodd" clip-rule="evenodd" d="M1.02148 66.0398C1.13251 65.8801 1.35196 65.8407 1.51164 65.9517L1.31061 66.2409C1.51164 65.9517 1.51183 65.9519 1.51209 65.952L1.51294 65.9526L1.51589 65.9547L1.52664 65.9623L1.56731 65.9912C1.60281 66.0166 1.65491 66.0542 1.72258 66.1041C1.85792 66.2038 2.05556 66.3524 2.30727 66.5498C2.81065 66.9444 3.53042 67.534 4.40063 68.3169C6.14083 69.8825 8.48399 72.2225 10.9018 75.3246C15.7372 81.5286 20.8767 90.7881 22.0786 102.999C22.0977 103.192 21.9562 103.365 21.7626 103.384C21.5691 103.403 21.3967 103.261 21.3777 103.068C20.192 91.0225 15.1227 81.8858 10.3463 75.7576C7.95815 72.6935 5.6446 70.3834 3.92957 68.8405C3.07217 68.0691 2.36468 67.4897 1.87273 67.104C1.62676 66.9112 1.43471 66.7668 1.30477 66.6711C1.23981 66.6232 1.19037 66.5875 1.1575 66.5639L1.12073 66.5378L1.11191 66.5316L1.10992 66.5302L1.10958 66.53" fill="#3C2858"/>
<path d="M135.869 86.85L135.398 114.752C135.398 114.752 135.289 115.892 134.052 115.703C132.814 115.514 132.775 114.273 132.744 113.544C132.744 113.544 132.706 113.099 132.087 113.065C131.468 113.032 127.353 113.005 127.353 113.005C127.353 113.005 126.332 112.971 126.518 110.657C126.518 110.657 126.371 110.34 127.067 110.34C127.763 110.34 128.049 109.672 127.724 109.321C127.399 108.97 126.053 109.099 126.053 109.099C126.053 109.099 125.504 109.132 125.543 108.181C125.582 107.23 127.252 107.581 127.252 107.581L127.214 106.852H126.193C126.193 106.852 125.21 105.584 126.556 104.754L131.94 104.66C131.94 104.66 132.667 105.01 132.706 104.376C132.744 103.742 132.636 101.617 132.636 101.617L131.468 100.889L131.36 97.556L132.273 96.8545V93.677L131.329 92.5639L131.143 86.4385L135.877 86.85H135.869Z" fill="#EE5096"/>
<path d="M128.903 78.3623H135.812C138.742 78.3623 141.116 80.7358 141.116 83.6657V89.3071C141.116 90.934 139.791 92.2581 138.165 92.2581H126.713C125.086 92.2581 123.762 90.934 123.762 89.3071V83.5037C123.762 80.6654 126.065 78.3623 128.903 78.3623Z" fill="#EE5096"/>
<path d="M130.101 80.123H134.608C136.291 80.123 137.658 81.4894 137.658 83.1726C137.658 83.56 137.348 83.8699 136.96 83.8699H127.91C127.523 83.8699 127.213 83.56 127.213 83.1726V83.0107C127.213 81.4189 128.509 80.123 130.101 80.123Z" fill="white"/>
<path d="M155.378 34.4784C154.265 33.1206 153.504 31.5069 153.165 29.7818C153.153 29.7273 153.123 29.6785 153.08 29.6435C153.037 29.6085 152.983 29.5894 152.927 29.5894C152.872 29.5894 152.818 29.6085 152.775 29.6435C152.731 29.6785 152.701 29.7273 152.69 29.7818C152.349 31.5166 151.589 33.1408 150.477 34.5117C149.302 35.7331 147.769 36.546 146.102 36.8322C146.047 36.8486 145.999 36.8823 145.965 36.9283C145.931 36.9743 145.912 37.0302 145.912 37.0876C145.912 37.145 145.931 37.2008 145.965 37.2468C145.999 37.2929 146.047 37.3266 146.102 37.343C147.462 37.7316 149.481 38.5587 150.787 40.1964C151.81 41.4899 152.402 43.4996 152.706 44.8763C152.715 44.9341 152.744 44.9868 152.788 45.0248C152.832 45.0629 152.889 45.0839 152.947 45.0839C153.005 45.0839 153.061 45.0629 153.105 45.0248C153.15 44.9868 153.179 44.9341 153.187 44.8763C153.458 43.1793 154.123 41.5702 155.129 40.1798C156.434 38.5143 158.448 37.7149 159.808 37.3208C159.863 37.3044 159.911 37.2706 159.945 37.2246C159.98 37.1786 159.998 37.1228 159.998 37.0654C159.998 37.008 159.98 36.9521 159.945 36.9061C159.911 36.8601 159.863 36.8264 159.808 36.81C158.119 36.534 156.565 35.7159 155.378 34.4784Z" fill="#E6E6FF"/>
<path d="M113.979 109.805C113.2 108.879 112.668 107.779 112.431 106.602C112.422 106.565 112.401 106.532 112.371 106.508C112.341 106.484 112.303 106.471 112.264 106.471C112.225 106.471 112.188 106.484 112.157 106.508C112.127 106.532 112.106 106.565 112.098 106.602C111.859 107.785 111.328 108.893 110.549 109.827C109.726 110.66 108.653 111.214 107.486 111.41C107.448 111.421 107.414 111.444 107.39 111.475C107.366 111.506 107.354 111.544 107.354 111.584C107.354 111.623 107.366 111.661 107.39 111.692C107.414 111.724 107.448 111.747 107.486 111.758C108.439 112.023 109.852 112.587 110.766 113.703C111.482 114.585 111.896 115.955 112.109 116.894C112.115 116.933 112.136 116.969 112.167 116.995C112.198 117.021 112.237 117.036 112.278 117.036C112.319 117.036 112.358 117.021 112.389 116.995C112.42 116.969 112.44 116.933 112.446 116.894C112.635 115.737 113.101 114.64 113.805 113.692C114.719 112.556 116.128 112.011 117.081 111.743C117.119 111.731 117.153 111.708 117.177 111.677C117.201 111.646 117.214 111.608 117.214 111.568C117.214 111.529 117.201 111.491 117.177 111.46C117.153 111.429 117.119 111.406 117.081 111.394C115.898 111.206 114.81 110.648 113.979 109.805Z" fill="#E6E6FF"/>
<path d="M70.5608 92.484C69.6703 91.3731 69.0621 90.0528 68.7908 88.6414C68.7814 88.5968 68.7574 88.5568 68.7227 88.5282C68.6881 88.4995 68.645 88.4839 68.6005 88.4839C68.5561 88.4839 68.5129 88.4995 68.4783 88.5282C68.4437 88.5568 68.4197 88.5968 68.4102 88.6414C68.138 90.0607 67.5302 91.3896 66.6402 92.5113C65.7002 93.5106 64.4739 94.1757 63.14 94.4099C63.0962 94.4233 63.0577 94.4509 63.0304 94.4885C63.003 94.5262 62.9883 94.5719 62.9883 94.6188C62.9883 94.6658 63.003 94.7115 63.0304 94.7491C63.0577 94.7867 63.0962 94.8143 63.14 94.8277C64.2286 95.1457 65.8437 95.8225 66.888 97.1624C67.7067 98.2207 68.1801 99.865 68.4235 100.991C68.4305 101.039 68.4538 101.082 68.4891 101.113C68.5244 101.144 68.5694 101.161 68.616 101.161C68.6626 101.161 68.7076 101.144 68.7429 101.113C68.7782 101.082 68.8015 101.039 68.8085 100.991C69.0246 99.603 69.5567 98.2864 70.3617 97.1488C71.406 95.7861 73.0167 95.1321 74.1053 94.8096C74.1491 94.7962 74.1876 94.7686 74.2149 94.7309C74.2422 94.6933 74.257 94.6476 74.257 94.6006C74.257 94.5537 74.2422 94.508 74.2149 94.4703C74.1876 94.4327 74.1491 94.4051 74.1053 94.3917C72.7539 94.1658 71.5103 93.4965 70.5608 92.484Z" fill="#E6E6FF"/>
<mask id="mask0_2554_22395" style="mask-type:alpha" maskUnits="userSpaceOnUse" x="816" y="70" width="167" height="55">
<rect x="816.07" y="70.8105" width="166.909" height="53.6059" fill="#D9D9D9"/>
</mask>
<g mask="url(#mask0_2554_22395)">
<path d="M838.452 130.508H830.666C830.666 130.508 826.393 130.044 825.288 122.442C824.57 117.467 827.218 113.772 829.288 112.777C831.358 111.782 838.452 112.008 838.452 112.008V130.515V130.508Z" fill="url(#paint42_linear_2554_22395)"/>
<path d="M838.453 130.508C843.032 130.508 846.745 126.365 846.745 121.254C846.745 116.144 843.032 112.001 838.453 112.001C833.873 112.001 830.16 116.144 830.16 121.254C830.16 126.365 833.873 130.508 838.453 130.508Z" fill="#6767DB"/>
<path d="M838.452 126.15C840.874 126.15 842.838 123.958 842.838 121.254C842.838 118.551 840.874 116.359 838.452 116.359C836.03 116.359 834.066 118.551 834.066 121.254C834.066 123.958 836.03 126.15 838.452 126.15Z" fill="#117B3E"/>
<path d="M821.176 124.18C821.176 124.18 822.527 126.734 824.63 126.946C826.733 127.158 854.186 126.946 854.186 126.946L891.316 127.039H914.137L918.862 125.686L934.176 126.442L937.63 125.434L935.693 122.243L930.555 107.882L888.374 108.088L843.331 104.287L821.189 124.173L821.176 124.18Z" fill="#5454D6"/>
<path d="M876.228 130.508H866.724C866.724 130.508 861.506 129.944 860.155 120.657C859.277 114.581 862.511 110.071 865.04 108.85C867.569 107.629 876.228 107.915 876.228 107.915V130.508Z" fill="url(#paint43_linear_2554_22395)"/>
<path d="M922.349 129.175H916.419C916.419 129.175 911.201 128.611 909.85 119.324C908.972 113.248 912.206 108.737 914.735 107.517C917.264 106.296 922.349 106.582 922.349 106.582V129.175Z" fill="url(#paint44_linear_2554_22395)"/>
<path d="M876.226 130.508C881.817 130.508 886.349 125.45 886.349 119.212C886.349 112.973 881.817 107.915 876.226 107.915C870.636 107.915 866.104 112.973 866.104 119.212C866.104 125.45 870.636 130.508 876.226 130.508Z" fill="#7272F7"/>
<path d="M923.174 129.181C927.684 129.181 931.34 124.718 931.34 119.212C931.34 113.705 927.684 109.242 923.174 109.242C918.664 109.242 915.008 113.705 915.008 119.212C915.008 124.718 918.664 129.181 923.174 129.181Z" fill="#7272F7"/>
<path d="M923.173 124.485C925.558 124.485 927.492 122.124 927.492 119.211C927.492 116.299 925.558 113.938 923.173 113.938C920.787 113.938 918.854 116.299 918.854 119.211C918.854 122.124 920.787 124.485 923.173 124.485Z" fill="#D2D3FF"/>
<path d="M914.914 82.4563C914.914 82.4563 914.708 79.3586 876.227 81.4215C876.227 81.4215 870.344 82.1379 867.056 85.1561C863.775 88.1742 854.005 96.2337 854.005 96.2337C854.005 96.2337 830.599 103.199 825.966 104.711C825.966 104.711 821.002 105.971 820.409 110.084V112.18C820.409 112.18 818.306 111.928 817.88 115.371C817.641 117.334 817.674 120.346 817.747 122.561C817.8 124.167 819.125 125.44 820.742 125.44H861.639C863.875 125.44 865.738 123.669 865.765 121.434C865.832 116.578 867.362 108.91 876.22 107.915C881.578 107.311 885.831 111.842 886.756 117.381C887.681 122.919 887.262 125.44 887.262 125.44H915.034C915.034 125.44 912.259 108.757 923.167 109.248C929.509 109.533 930.634 115.61 931.333 119.218C932.032 122.827 930.168 125.447 930.168 125.447H937.622L940.737 106.562C940.737 106.562 939.306 99.0064 935.346 98.4227C931.386 97.8389 927.499 95.6566 927.499 95.6566L914.914 82.4696V82.4563Z" fill="url(#paint45_linear_2554_22395)"/>
<path d="M885.098 100.631C882.15 100.631 879.202 100.631 876.254 100.631C875.761 100.631 875.308 100.558 874.909 100.426C871.196 101.839 867.602 103.484 864.341 105.659C858.284 109.706 859.023 118.866 859.03 125.234C859.03 125.307 859.016 125.367 859.01 125.44H861.645C863.881 125.44 865.745 123.669 865.771 121.433C865.838 116.578 867.369 108.91 876.227 107.915C881.584 107.311 885.837 111.842 886.762 117.381C887.687 122.919 887.268 125.44 887.268 125.44H915.04C915.04 125.44 912.265 108.757 923.173 109.248C929.516 109.533 930.64 115.609 931.339 119.218C932.038 122.826 930.175 125.447 930.175 125.447H937.628L940.743 106.562C940.743 106.562 940.118 103.271 938.554 100.864C920.751 101.666 902.915 101.593 885.105 100.638L885.098 100.631Z" fill="url(#paint46_linear_2554_22395)"/>
<path d="M898.548 125.181C898.548 125.181 900.658 110.714 897.85 97.7393" stroke="url(#paint47_linear_2554_22395)" stroke-width="1.82258" stroke-miterlimit="10"/>
<path d="M885.218 96.7644C887.694 96.8241 890.163 96.9104 892.639 97.0032C893.417 94.8275 894.176 92.6518 894.862 90.4495C895.301 89.0499 895.714 87.6436 896.093 86.2241C896.279 85.521 896.446 84.8046 896.625 84.1014C896.745 83.6504 897.058 82.9539 897.078 82.4033C887.421 82.4033 876.753 82.4697 873.205 82.7284C873.205 82.7284 870.344 82.138 867.056 85.1628C863.775 88.1809 854.005 96.2404 854.005 96.2404C854.005 96.2404 853.699 96.3333 853.18 96.4858C857.053 96.4726 860.926 96.6583 864.8 96.7445C871.602 96.6716 878.41 96.6052 885.212 96.7711L885.218 96.7644Z" fill="url(#paint48_linear_2554_22395)"/>
<path d="M821.847 107.146C821.847 107.146 822.313 106.263 823.365 107.477C824.416 108.691 825.934 110.92 826.186 112.22L820.416 112.18C820.416 112.18 819.93 108.645 821.847 107.146Z" fill="white"/>
<path d="M823.205 107.311C822.266 106.356 821.847 107.145 821.847 107.145C819.93 108.644 820.416 112.18 820.416 112.18H821.228C821.381 110.303 821.92 108.545 823.205 107.311Z" fill="url(#paint49_linear_2554_22395)"/>
<path d="M843.316 112.678C843.316 112.678 844.202 108.983 846.431 108.439C848.661 107.895 856.66 108.147 856.66 108.147C856.66 108.147 858.723 108.061 858.936 109.321C859.149 110.582 858.81 112.339 855.782 112.93C852.454 113.135 843.323 112.678 843.323 112.678H843.316Z" fill="white"/>
<path d="M858.937 109.321C858.817 108.605 858.105 108.326 857.506 108.213C858.025 109.514 857.472 111.019 856.448 112.028C856.081 112.386 855.689 112.691 855.27 112.95C855.449 112.943 855.622 112.936 855.782 112.923C858.81 112.333 859.15 110.575 858.937 109.315V109.321Z" fill="url(#paint50_linear_2554_22395)"/>
<path d="M827.783 111.298H841.466C841.466 111.298 839.237 115.45 834.099 115.158C828.961 114.867 827.783 111.298 827.783 111.298Z" fill="url(#paint51_linear_2554_22395)"/>
<path d="M876.229 125.188C879.187 125.188 881.586 122.512 881.586 119.211C881.586 115.911 879.187 113.235 876.229 113.235C873.27 113.235 870.871 115.911 870.871 119.211C870.871 122.512 873.27 125.188 876.229 125.188Z" fill="#D2D3FF"/>
<path d="M908.139 84.0016C909.017 88.5388 909.703 93.1157 910.455 97.6795L926.241 97.6065L913.244 82.4428L907.826 82.4229C907.933 82.9469 908.039 83.4709 908.139 84.0016Z" fill="#7272F7"/>
<path d="M906.902 82.423L898.975 82.3965L894.936 97.3214L895.847 97.7459L909.551 97.6863C908.712 92.5919 907.94 87.4842 906.902 82.4297V82.423Z" fill="#7272F7"/>
<path d="M935.346 98.416L935.938 105.129L940.736 106.555C940.736 106.555 939.592 99.5569 935.346 98.416Z" fill="#7272F7"/>
</g>
<g clip-path="url(#clip0_2554_22395)">
<path d="M903.501 93.2139L922.631 94.3925L921.539 125.049L902.75 125.031L903.501 93.2139Z" fill="#40275B"/>
<path d="M903.458 48.9292L918.656 49.8972L926.023 61.5307C926.023 61.5307 927.655 81.7325 927.557 82.4047C927.458 83.0769 926.018 109.992 925.473 110.001C921.537 110.041 895.318 106.456 895.318 106.456L898.865 54.8938L903.454 48.9292H903.458Z" fill="white"/>
<path d="M933.642 87.0517V124.986L917.295 125.071L919.495 84.9097L933.642 87.0517Z" fill="#7272FF"/>
<path d="M901.382 20.2531C901.382 20.2531 905.21 17.1386 908.636 16.7263C913.57 16.1348 920.529 18.6264 921.938 23.5648C923.347 28.5032 922.336 38.0888 921.312 43.5426H899.208C899.208 43.5426 897.585 22.6193 901.382 20.2576V20.2531Z" fill="#40275B"/>
<path d="M906.016 40.5894L905.694 46.4241C905.694 46.4241 901.535 47.643 902.174 49.0546C902.814 50.4662 912.926 51.237 919.519 49.8881C926.112 48.5393 918.24 46.088 915.359 45.9356L915.149 36.0991C915.149 36.0991 915.118 31.5102 915.127 31.3399C915.136 31.1696 909.729 30.3271 909.729 30.3271L906.016 40.5894Z" fill="#FFA4D7"/>
<path d="M909.731 43.1392C911.663 42.5163 913.524 41.7589 915.246 40.7641L915.148 36.1035C915.148 36.1035 915.116 31.5146 915.125 31.3443C915.134 31.174 909.727 30.3315 909.727 30.3315L906.015 40.5938L905.822 44.0937C907.146 43.9055 908.457 43.5515 909.731 43.1392Z" fill="#FF689B"/>
<path d="M904.804 46.7334C904.804 46.7334 906.83 113.223 906.83 125.054L889.673 124.964L890.639 96.2745L890.344 104.995C890.344 104.995 873.822 78.5777 895.389 50.0854C900.586 47.3697 904.804 46.7334 904.804 46.7334Z" fill="url(#paint52_linear_2554_22395)"/>
<path d="M917.564 46.2852L919.009 95.5842C919.009 95.5842 925.472 117.928 942.776 90.3276C942.776 90.3276 936.461 63.5517 933.939 57.3182C932.293 53.2536 925.691 47.2621 917.569 46.2852H917.564Z" fill="#7272FF"/>
<path d="M913.378 36.5515C913.378 36.5515 910.69 41.8081 906.083 41.6826C901.476 41.5572 901.091 39.7602 900.962 36.5515C900.832 33.3429 900.192 23.0851 902.116 21.8035C904.039 20.5218 910.18 21.1626 910.18 21.1626C910.18 21.1626 914.661 25.2675 914.661 25.9084C914.661 26.5492 916.388 32.9575 913.382 36.5515H913.378Z" fill="#FFA4D7"/>
<path d="M903.838 21.7365C903.838 21.7365 913.374 36.5518 915.248 30.3317C915.248 30.3317 914.206 31.2011 914.398 31.3445C914.59 31.4879 917.216 29.7581 917.216 29.7581C917.216 29.7581 913.633 22.3819 913.566 22.2564C913.499 22.1309 909.152 19.115 908.892 19.0477C908.633 18.9805 904.348 20.1367 904.348 20.1367C904.348 20.1367 900.314 19.4331 899.549 21.8665C898.784 24.2999 899.549 29.3055 899.549 29.3055L903.838 21.7365Z" fill="#40275B"/>
<path d="M906.249 31.34C906.498 31.34 906.7 30.9428 906.7 30.4527C906.7 29.9627 906.498 29.5654 906.249 29.5654C905.999 29.5654 905.797 29.9627 905.797 30.4527C905.797 30.9428 905.999 31.34 906.249 31.34Z" fill="#40275B"/>
<path d="M901.665 31.0754C901.914 31.0754 902.116 30.6781 902.116 30.1881C902.116 29.698 901.914 29.3008 901.665 29.3008C901.415 29.3008 901.213 29.698 901.213 30.1881C901.213 30.6781 901.415 31.0754 901.665 31.0754Z" fill="#40275B"/>
<path d="M909.428 28.4493C909.365 28.4493 909.307 28.4268 909.258 28.382C907.8 27.0197 905.707 27.3513 905.684 27.3513C905.546 27.3737 905.42 27.2841 905.398 27.1452C905.376 27.0107 905.465 26.8808 905.604 26.8584C905.698 26.8405 907.961 26.482 909.602 28.0146C909.705 28.1087 909.71 28.27 909.616 28.3686C909.566 28.4224 909.499 28.4493 909.432 28.4493H909.428Z" fill="#40275B"/>
<path d="M900.998 27.0734C900.922 27.0734 900.841 27.0375 900.797 26.9703C900.716 26.8583 900.743 26.7014 900.855 26.6208C900.882 26.6028 901.517 26.1502 902.179 26.3116C902.313 26.3429 902.393 26.4818 902.362 26.6163C902.331 26.7507 902.192 26.8359 902.058 26.8C901.619 26.6925 901.15 27.0241 901.145 27.0286C901.101 27.0599 901.051 27.0734 901.002 27.0734H900.998Z" fill="#40275B"/>
<path d="M902.751 33.5853C902.72 33.5853 901.991 33.5808 901.579 33.0699C901.235 32.6397 901.481 32.102 901.66 31.8734C901.7 31.8241 901.767 31.8151 901.816 31.8555C901.866 31.8958 901.875 31.963 901.834 32.0123C901.816 32.0347 901.432 32.5322 901.754 32.9265C902.098 33.3522 902.747 33.3567 902.751 33.3567C902.814 33.3567 902.863 33.406 902.863 33.4688C902.863 33.5315 902.814 33.5808 902.751 33.5808V33.5853Z" fill="#40275B"/>
<path d="M914.402 31.3399C914.402 31.3399 916.451 28.4449 917.22 31.3399C917.685 33.0876 916.066 35.4582 914.402 35.8436C914.402 35.8436 913.57 34.7546 913.57 34.4947C913.57 34.2348 914.402 31.3354 914.402 31.3354V31.3399Z" fill="#FFA4D7"/>
<path d="M902.178 35.1401C902.178 35.1401 905.975 35.3641 906.7 34.916C906.7 34.916 906.248 36.8027 902.178 35.9736V35.1401Z" fill="white"/>
</g>
<g opacity="0.4">
<path d="M215.495 59.5249H205.594V124.416H215.495V59.5249Z" fill="#D2D3FF"/>
<path d="M236.703 59.5249H215.498V124.416H236.703V59.5249Z" fill="url(#paint53_linear_2554_22395)"/>
<path d="M234.019 63.6743H217.594V65.5726H234.019V63.6743Z" fill="url(#paint54_linear_2554_22395)"/>
<path d="M234.019 69.606H217.594V71.5042H234.019V69.606Z" fill="url(#paint55_linear_2554_22395)"/>
<path d="M234.019 75.2607H217.594V77.159H234.019V75.2607Z" fill="url(#paint56_linear_2554_22395)"/>
<path d="M234.019 81.478H217.594V83.3763H234.019V81.478Z" fill="url(#paint57_linear_2554_22395)"/>
<path d="M234.019 87.0562H217.594V88.9544H234.019V87.0562Z" fill="url(#paint58_linear_2554_22395)"/>
<path d="M211.886 63.0557H209.244V105.354H211.886V63.0557Z" fill="url(#paint59_linear_2554_22395)"/>
<path d="M211.886 69.4312H209.424V69.8577H211.886V69.4312Z" fill="#E9EAFF"/>
<path d="M211.886 77.9766H209.424V78.4031H211.886V77.9766Z" fill="#E9EAFF"/>
<path d="M211.886 86.5229H209.424V86.9495H211.886V86.5229Z" fill="#E9EAFF"/>
<path d="M211.886 95.0688H209.424V95.4954H211.886V95.0688Z" fill="#E9EAFF"/>
<path d="M209.749 63.0557H209.1V105.354H209.749V63.0557Z" fill="#9792FF"/>
<path d="M205.597 65.7979H191.643V124.412H205.597V65.7979Z" fill="url(#paint60_linear_2554_22395)"/>
<path d="M194.101 65.7979H191.643V70.5527H194.101V65.7979Z" fill="url(#paint61_linear_2554_22395)"/>
<path d="M194.101 70.5527H191.643V77.6189H194.101V70.5527Z" fill="#D2D3FF"/>
<path d="M194.101 77.623H191.643V87.316H194.101V77.623Z" fill="#D2D3FF"/>
<path d="M194.101 87.312H191.643V100.05H194.101V87.312Z" fill="url(#paint62_linear_2554_22395)"/>
<path d="M194.101 100.05H191.643V105.355H194.101V100.05Z" fill="url(#paint63_linear_2554_22395)"/>
<path d="M196.628 65.7979H196.234V105.354H196.628V65.7979Z" fill="url(#paint64_linear_2554_22395)"/>
<path d="M275.001 104.238C274.997 103.014 274.586 102.178 273.988 101.316C273.705 100.911 273.376 100.527 273.205 100.063C273.073 99.7044 273.047 99.3121 273.043 98.9283C273.03 97.7684 273.222 96.6127 273.145 95.4571C273.073 94.3014 272.684 93.0904 271.76 92.3867C271.26 92.0029 270.623 91.8409 269.995 91.8622C269.995 91.8622 269.982 91.8622 269.973 91.8622C269.965 91.8622 269.96 91.8622 269.952 91.8622C269.323 91.8409 268.686 92.0029 268.186 92.3867C267.267 93.0904 266.874 94.3014 266.801 95.4571C266.728 96.6127 266.916 97.7684 266.904 98.9283C266.904 99.3121 266.874 99.7002 266.741 100.063C266.57 100.527 266.241 100.911 265.959 101.316C265.364 102.178 264.954 103.014 264.945 104.238C264.92 109.188 267.66 110.459 269.947 110.455C269.947 110.455 269.96 110.455 269.969 110.455C269.977 110.455 269.982 110.455 269.99 110.455C272.277 110.455 275.018 109.188 274.992 104.238H275.001Z" fill="#9792FF"/>
<path d="M269.786 98.0371H269.572V124.417H269.786V98.0371Z" fill="url(#paint65_linear_2554_22395)"/>
<path d="M191.642 92.4507H181.283V124.417H191.642V92.4507Z" fill="url(#paint66_linear_2554_22395)"/>
<path d="M191.638 92.4507H186.533V124.417H191.638V92.4507Z" fill="url(#paint67_linear_2554_22395)"/>
<path d="M181.288 92.4507H176V124.417H181.288V92.4507Z" fill="#73A9B5"/>
<path d="M181.288 92.4507H176V124.417H181.288V92.4507Z" fill="url(#paint68_linear_2554_22395)"/>
<path d="M185.843 94.6855H183.158V98.3956H185.843V94.6855Z" fill="url(#paint69_linear_2554_22395)"/>
<path d="M184.649 94.6763H184.346V98.4076H184.649V94.6763Z" fill="#9792FF"/>
<path d="M185.995 101.628H183.311V105.338H185.995V101.628Z" fill="url(#paint70_linear_2554_22395)"/>
<path d="M184.802 101.623H184.498V105.354H184.802V101.623Z" fill="#9792FF"/>
<path d="M186.146 108.574H183.461V112.284H186.146V108.574Z" fill="url(#paint71_linear_2554_22395)"/>
<path d="M184.958 108.565H184.654V112.297H184.958V108.565Z" fill="#9792FF"/>
<path d="M186.298 115.516H183.613V119.226H186.298V115.516Z" fill="url(#paint72_linear_2554_22395)"/>
<path d="M185.106 115.512H184.803V119.244H185.106V115.512Z" fill="#9792FF"/>
<path d="M200.817 105.354H189.748V124.412H200.817V105.354Z" fill="#D2D3FF"/>
<path d="M200.817 105.354H189.748V106.66H200.817V105.354Z" fill="url(#paint73_linear_2554_22395)"/>
<path d="M222.269 105.354H200.816V124.412H222.269V105.354Z" fill="url(#paint74_linear_2554_22395)"/>
<path d="M222.269 105.354H200.816V106.66H222.269V105.354Z" fill="url(#paint75_linear_2554_22395)"/>
<path d="M218.408 115.969H204.193V124.417H218.408V115.969Z" fill="#D2D3FF"/>
<path d="M207.407 115.969H207.193V124.417H207.407V115.969Z" fill="url(#paint76_linear_2554_22395)"/>
<path d="M210.218 115.969H210.004V124.417H210.218V115.969Z" fill="url(#paint77_linear_2554_22395)"/>
<path d="M212.813 115.969H212.6V124.412H212.813V115.969Z" fill="url(#paint78_linear_2554_22395)"/>
<path d="M215.497 115.969H215.283V124.412H215.497V115.969Z" fill="url(#paint79_linear_2554_22395)"/>
<path d="M218.408 114.263H204.193V115.509H218.408V114.263Z" fill="#D2D3FF"/>
<path d="M194.334 117.581H192.453V124.135H194.334V117.581Z" fill="url(#paint80_linear_2554_22395)"/>
<path d="M194.141 117.994H192.439V117.581H194.333V124.139H194.141V117.994Z" fill="url(#paint81_linear_2554_22395)"/>
<path d="M194.35 118.48H192.439V118.702H194.35V118.48Z" fill="url(#paint82_linear_2554_22395)"/>
<path d="M198.115 117.581H196.234V124.135H198.115V117.581Z" fill="url(#paint83_linear_2554_22395)"/>
<path d="M197.922 117.994H196.221V117.581H198.115V124.139H197.922V117.994Z" fill="url(#paint84_linear_2554_22395)"/>
<path d="M198.132 118.476H196.221V118.697H198.132V118.476Z" fill="url(#paint85_linear_2554_22395)"/>
<path d="M222.662 103.751H189.346V105.338H222.662V103.751Z" fill="#D2D3FF"/>
<path d="M242.366 77.1626H236.697V124.416H242.366V77.1626Z" fill="url(#paint86_linear_2554_22395)"/>
<path d="M250.578 77.1626H242.365V124.416H250.578V77.1626Z" fill="url(#paint87_linear_2554_22395)"/>
<path d="M239.998 79.6748H236.697V86.6898H239.998V79.6748Z" fill="url(#paint88_linear_2554_22395)"/>
<g opacity="0.55">
<path d="M239.998 86.689H239.57V89.3201H239.998V86.689Z" fill="#E9EAFF"/>
<path d="M239.998 92.3647H239.57V94.9959H239.998V92.3647Z" fill="#E9EAFF"/>
<path d="M239.998 98.041H239.57V100.672H239.998V98.041Z" fill="#E9EAFF"/>
<path d="M239.998 103.722H239.57V106.353H239.998V103.722Z" fill="#E9EAFF"/>
<path d="M239.998 109.397H239.57V112.029H239.998V109.397Z" fill="#E9EAFF"/>
<path d="M239.998 115.073H239.57V117.704H239.998V115.073Z" fill="#E9EAFF"/>
<path d="M239.998 120.749H239.57V123.38H239.998V120.749Z" fill="#E9EAFF"/>
</g>
<path d="M246.51 116.506C245.771 116.506 245.168 117.099 245.168 117.832V124.412H247.853V117.832C247.853 117.099 247.254 116.506 246.51 116.506Z" fill="url(#paint89_linear_2554_22395)"/>
<path d="M246.514 116.506V124.416" stroke="#9792FF" stroke-width="1.67677"/>
<path d="M247.893 118.66H245.195" stroke="#9792FF" stroke-width="1.67677"/>
<path d="M266.443 102.565H250.27V124.412H266.443V102.565Z" fill="url(#paint90_linear_2554_22395)"/>
<path d="M253.151 102.565H250.27V124.412H253.151V102.565Z" fill="url(#paint91_linear_2554_22395)"/>
<path d="M256.638 104.851H254.787V107.261H256.638V104.851Z" fill="#E9EAFF"/>
<path d="M260.709 104.851H258.857V107.261H260.709V104.851Z" fill="#E9EAFF"/>
<path d="M264.304 104.851H262.453V107.261H264.304V104.851Z" fill="#E9EAFF"/>
<path d="M257.929 98.0371H250.58V102.57H257.929V98.0371Z" fill="url(#paint92_linear_2554_22395)"/>
<path d="M253.149 98.0371H250.58V102.57H253.149V98.0371Z" fill="url(#paint93_linear_2554_22395)"/>
<path d="M255.664 100.161H254.74V102.571H255.664V100.161Z" fill="#E9EAFF"/>
<path d="M256.681 100.161H255.758V102.571H256.681V100.161Z" fill="#E9EAFF"/>
</g>
<mask id="mask1_2554_22395" style="mask-type:alpha" maskUnits="userSpaceOnUse" x="903" y="-12" width="122" height="148">
<rect x="903.77" y="-12" width="121.23" height="147.416" fill="#D9D9D9"/>
</mask>
<g mask="url(#mask1_2554_22395)">
<path d="M933.825 74.1816L933.131 111.11L919.801 149.838H936.478L945.372 118.889L948.975 86.6559L933.825 74.1816Z" fill="#ED1B8B"/>
<path d="M943.532 82.1689C942.99 85.0782 942.467 87.9874 941.943 90.9027C939.848 102.636 937.851 114.387 935.452 126.061C935.263 126.988 932.226 148.911 932.031 149.838H936.478L944.261 123.311L948.976 86.6563L943.526 82.175L943.532 82.1689Z" fill="#C70A6E"/>
<path d="M954.748 52.4018C954.748 52.4018 941.68 62.5812 939.689 63.563C937.698 64.5448 932.388 71.6583 933.825 79.868C935.263 88.0777 940.798 114.116 940.798 114.116C940.798 114.116 942.812 143.167 942.593 144.312C942.593 144.312 958.542 146.253 968.72 145.417C978.437 144.619 993.18 140.443 993.18 140.443L996.105 101.528L990.022 52.3958L988.969 51.932L975.913 48.2939L954.748 52.3958V52.4018Z" fill="#ED1B8B"/>
<path d="M986.538 68.4295C986.204 68.7006 985.796 68.8452 985.4 68.8211C986.721 76.3984 987.805 77.1392 987.677 84.9454C987.671 85.4694 980.943 80.5424 980.602 80.7592C981.089 85.4032 987.762 110.843 987.677 113.005L993.44 135.914L996.098 101.534L991.665 65.7612C989.863 66.4298 988.036 67.2309 986.532 68.4295H986.538Z" fill="#C70A6E"/>
<path d="M987.72 51.938C991.203 51.938 1000.08 54.4798 1003.15 60.5573C1006.22 66.6288 1014.85 93.7155 1014.85 93.7155L1018.67 111.279C1018.67 111.279 1019.91 114.646 1017.92 119.074C1015.93 123.507 1007.08 149.838 1007.08 149.838H989.844L998.912 117.513C998.912 117.513 986.168 87.8789 982.983 77.6273C981.857 73.9953 980.225 65.4181 980.657 62.6113C981.236 58.8347 982.234 51.944 987.708 51.944L987.72 51.938Z" fill="#ED1B8A"/>
<path d="M956.501 49.1733L954.455 50.4864C954.455 50.4864 951.191 59.7322 951.526 63.0992L951.502 64.9303L956.812 59.0997L957.993 54.3172L956.501 49.1733Z" fill="white"/>
<path d="M953.859 47.1254C955.174 49.3179 956.447 51.7754 956.039 54.2871C955.893 55.1785 955.539 56.0339 955.497 56.9313C955.485 57.1602 955.497 57.3831 955.527 57.6059C956.818 60.7079 962.98 59.3226 965.459 58.5335C967.608 57.8529 969.751 57.4011 971.895 57.1843C972.79 55.9977 973.508 54.6786 973.989 53.2752C974.525 51.6971 974.769 49.9262 974.117 48.3903C973.606 47.1857 972.345 46.4327 971.755 45.2642C970.506 42.8007 969.745 40.8732 969.088 38.0845C968.862 37.1328 968.406 35.9944 968.174 35.0427C967.943 34.091 967.462 33.1514 966.634 32.6153C965.349 31.7841 963.656 32.1335 962.183 32.5611C958.882 33.5248 955.606 34.7777 952.909 36.8919C952.909 36.8919 945.03 40.2348 950.041 43.0537C951.697 43.9873 952.903 45.5052 953.877 47.1254H953.859Z" fill="#FFAAD6"/>
<path d="M950.96 43.6801C952.58 43.9511 954.182 44.3246 955.777 44.7282C956.191 44.8366 956.611 44.9329 957.031 45.0414C957.853 45.0474 958.675 45.0414 959.491 45.0052C961.543 44.9269 963.595 44.7462 965.641 44.5113C967.109 43.8789 969.155 42.9995 970.452 42.102C969.812 40.7528 969.374 39.3072 969.185 37.8255C969.063 36.8557 968.406 35.9944 968.174 35.0427C967.943 34.091 967.462 33.1514 966.634 32.6153C965.349 31.7841 963.656 32.1335 962.183 32.5611C958.882 33.5248 955.606 34.7777 952.909 36.8919C952.909 36.8919 945.03 40.2348 950.041 43.0537C950.37 43.2404 950.68 43.4572 950.979 43.6861L950.96 43.6801Z" fill="#F9739C"/>
<path d="M949.419 18.1533C949.419 18.1533 942.118 8.7991 948.092 5.57062C948.092 5.57062 950.418 3.60101 953.012 6.28137C953.012 6.28137 957.104 2.45056 960.093 4.5828C963.083 6.71505 968.722 9.50985 971.766 10.0519C974.811 10.594 986.258 14.0454 984.322 24.6042C984.322 24.6042 982.995 30.513 976.686 34.8378C970.378 39.1625 970.902 44.1377 970.902 44.1377L968.162 35.0365L949.419 18.1533Z" fill="#3C2858"/>
<path d="M953.011 6.28125C953.011 6.28125 950.722 8.13642 951.276 10.7505" stroke="white" stroke-width="0.91129" stroke-miterlimit="10" stroke-linecap="round"/>
<path d="M965.465 14.0392C963.388 13.2803 961.294 12.5213 959.108 12.1901C956.922 11.8588 954.608 11.9853 952.617 12.943C951.588 13.4369 950.674 14.1416 949.828 14.9066C949.158 15.5089 948.513 16.1895 948.214 17.0328C947.904 17.9122 948.007 18.8759 947.886 19.7975C947.502 22.6405 945.724 24.8932 943.617 26.8628C943.252 27.2061 942.253 27.3989 942.113 27.8747C941.912 28.5614 942.259 29.3143 942.795 29.7961C943.331 30.278 944.025 30.537 944.701 30.796C943.666 32.9945 942.631 35.199 941.784 37.4818C941.461 38.3552 941.157 39.2888 941.321 40.2104C941.522 41.3126 942.387 42.2161 943.392 42.7341C944.396 43.2521 945.541 43.4509 946.662 43.6015C948.89 43.9087 949.919 44.0894 952.172 44.1436C953.262 44.1677 954.358 44.1436 955.412 43.8665C963.626 41.668 965.306 37.9757 965.721 37.6445C966.122 37.3252 966.451 36.9277 966.731 36.5C967.493 35.3436 969.118 33.9944 969.441 32.6512C970.074 30.013 970.427 27.3085 970.488 24.598C970.531 22.7007 970.427 20.7672 969.837 18.9602C969.246 17.1533 968.126 15.4607 966.482 14.4669" fill="#FFAAD6"/>
<path d="M944.018 30.519C944.018 30.519 944.901 30.8202 945.741 30.766" stroke="#3C2858" stroke-width="0.91129" stroke-miterlimit="10" stroke-linecap="round"/>
<path d="M958.73 8.51611C958.73 8.51611 956.666 14.1539 960.423 20.4001C961.141 21.5927 964.764 22.6407 965.251 23.243C965.738 23.8454 966.012 25.1584 965.903 25.815C965.793 26.4715 965.209 30.5734 965.251 30.5734C965.294 30.5734 967.206 31.0312 967.206 31.0312L970.494 30.7962L974.087 14.6538L958.73 8.51611Z" fill="#3C2858"/>
<path d="M967.522 29.5375C967.522 29.5375 968.076 27.2968 969.526 27.0378C970.975 26.7788 972.424 26.7728 972.619 28.8328C972.814 30.8927 969.331 35.9101 969.331 35.9101C969.331 35.9101 967.881 37.687 967.212 36.2595C966.542 34.832 967.516 29.5375 967.516 29.5375H967.522Z" fill="#FFAAD6"/>
<path d="M971.749 45.258L972.699 46.3362C972.699 46.3362 973.941 47.6974 971.749 49.9381C969.557 52.1787 961.434 59.0212 961.434 59.0212L960.539 59.4609L964.412 67.4478C964.412 67.4478 976.633 60.2259 978.295 52.6184C978.295 52.6184 979.513 49.9923 977.85 48.8418C976.188 47.6914 971.822 43.698 971.822 43.698L970.501 43.5112L971.749 45.258Z" fill="white"/>
<path d="M955.259 23.1886C955.156 23.1886 955.052 23.1344 954.997 23.038C953.591 20.6046 950.711 19.9902 950.68 19.9842C950.516 19.9481 950.412 19.7915 950.443 19.6288C950.479 19.4662 950.638 19.3638 950.802 19.3939C950.93 19.418 953.981 20.0685 955.527 22.7429C955.612 22.8874 955.558 23.0681 955.412 23.1524C955.363 23.1765 955.314 23.1946 955.259 23.1946V23.1886Z" fill="#3C2858"/>
<path d="M951.282 25.2909C951.585 25.2909 951.83 24.8136 951.83 24.2248C951.83 23.636 951.585 23.1587 951.282 23.1587C950.98 23.1587 950.734 23.636 950.734 24.2248C950.734 24.8136 950.98 25.2909 951.282 25.2909Z" fill="#3C2858"/>
<path d="M945.048 34.1272C945.212 34.1272 949.377 34.5669 950.059 33.7959C950.059 33.7959 948.147 37.4099 945.736 36.9702C944.451 36.4642 945.042 34.1272 945.042 34.1272H945.048Z" fill="white"/>
<path d="M977.686 79.8438C977.686 79.8438 982.606 80.6147 985.413 84.4937" stroke="#3C2858" stroke-width="0.91129" stroke-miterlimit="10" stroke-linecap="round"/>
<path d="M1004.4 114.966L998.924 117.513L1000.99 109.466" stroke="#3C2858" stroke-width="0.91129" stroke-miterlimit="10" stroke-linecap="round"/>
<path d="M934.958 107.545L933.131 111.111" stroke="#3C2858" stroke-width="0.91129" stroke-miterlimit="10"/>
</g>
<defs>
<linearGradient id="paint0_linear_2554_22395" x1="777.491" y1="10.817" x2="812.081" y2="209.486" gradientUnits="userSpaceOnUse">
<stop stop-color="#E7E8FF" stop-opacity="0"/>
<stop offset="0.09" stop-color="#E2E3FF" stop-opacity="0.09"/>
<stop offset="0.54" stop-color="#C9CAFF" stop-opacity="0.58"/>
<stop offset="0.86" stop-color="#BABBFF" stop-opacity="0.88"/>
<stop offset="1" stop-color="#B4B5FF"/>
</linearGradient>
<linearGradient id="paint1_linear_2554_22395" x1="26.1847" y1="-37.6553" x2="113.237" y2="134.061" gradientUnits="userSpaceOnUse">
<stop offset="0.28" stop-color="#BFC4FF"/>
<stop offset="1" stop-color="#7272F7"/>
</linearGradient>
<linearGradient id="paint2_linear_2554_22395" x1="115.489" y1="-4.95404" x2="35.5728" y2="47.873" gradientUnits="userSpaceOnUse">
<stop offset="0.28" stop-color="#E7E8FF"/>
<stop offset="1" stop-color="#B4B5FF"/>
</linearGradient>
<linearGradient id="paint3_linear_2554_22395" x1="120.306" y1="2.32988" x2="40.3895" y2="55.1568" gradientUnits="userSpaceOnUse">
<stop offset="0.28" stop-color="#E7E8FF"/>
<stop offset="1" stop-color="#B4B5FF"/>
</linearGradient>
<linearGradient id="paint4_linear_2554_22395" x1="124.904" y1="9.27653" x2="44.9878" y2="62.1035" gradientUnits="userSpaceOnUse">
<stop offset="0.28" stop-color="#E7E8FF"/>
<stop offset="1" stop-color="#B4B5FF"/>
</linearGradient>
<linearGradient id="paint5_linear_2554_22395" x1="104.778" y1="36.929" x2="64.8042" y2="57.9562" gradientUnits="userSpaceOnUse">
<stop offset="0.28" stop-color="#E7E8FF"/>
<stop offset="1" stop-color="#B4B5FF"/>
</linearGradient>
<linearGradient id="paint6_linear_2554_22395" x1="104.778" y1="46.771" x2="64.8041" y2="67.7907" gradientUnits="userSpaceOnUse">
<stop offset="0.28" stop-color="#E7E8FF"/>
<stop offset="1" stop-color="#B4B5FF"/>
</linearGradient>
<linearGradient id="paint7_linear_2554_22395" x1="92.6578" y1="-27.8502" x2="11.8251" y2="135.64" gradientUnits="userSpaceOnUse">
<stop offset="0.28" stop-color="#BFC4FF"/>
<stop offset="1" stop-color="#7272F7"/>
</linearGradient>
<linearGradient id="paint8_linear_2554_22395" x1="-14.9506" y1="0.850022" x2="67.9031" y2="130.683" gradientUnits="userSpaceOnUse">
<stop offset="0.28" stop-color="#BFC4FF"/>
<stop offset="1" stop-color="#7272F7"/>
</linearGradient>
<linearGradient id="paint9_linear_2554_22395" x1="33.9938" y1="0.0906047" x2="3.46664" y2="59.5985" gradientUnits="userSpaceOnUse">
<stop offset="0.28" stop-color="#BFC4FF"/>
<stop offset="1" stop-color="#7272F7"/>
</linearGradient>
<linearGradient id="paint10_linear_2554_22395" x1="51.6705" y1="51.4676" x2="-10.6805" y2="89.8197" gradientUnits="userSpaceOnUse">
<stop offset="0.28" stop-color="#BFC4FF"/>
<stop offset="1" stop-color="#7272F7"/>
</linearGradient>
<linearGradient id="paint11_linear_2554_22395" x1="38.4337" y1="63.4005" x2="7.73916" y2="103.672" gradientUnits="userSpaceOnUse">
<stop offset="0.28" stop-color="#BFC4FF"/>
<stop offset="1" stop-color="#7272F7"/>
</linearGradient>
<linearGradient id="paint12_linear_2554_22395" x1="72.9068" y1="48.4076" x2="13.7489" y2="58.2229" gradientUnits="userSpaceOnUse">
<stop offset="0.28" stop-color="#BFC4FF"/>
<stop offset="1" stop-color="#7272F7"/>
</linearGradient>
<linearGradient id="paint13_linear_2554_22395" x1="171.05" y1="82.4157" x2="143.962" y2="117.372" gradientUnits="userSpaceOnUse">
<stop offset="0.28" stop-color="#BFC4FF"/>
<stop offset="1" stop-color="#7272F7"/>
</linearGradient>
<linearGradient id="paint14_linear_2554_22395" x1="-29.5358" y1="43.1443" x2="24.1395" y2="116.095" gradientUnits="userSpaceOnUse">
<stop offset="0.28" stop-color="#BFC4FF"/>
<stop offset="1" stop-color="#7272F7"/>
</linearGradient>
<linearGradient id="paint15_linear_2554_22395" x1="-0.863884" y1="95.0027" x2="19.3751" y2="96.6501" gradientUnits="userSpaceOnUse">
<stop offset="0.28" stop-color="#9DA1FF" stop-opacity="0"/>
<stop offset="1" stop-color="#7272F7"/>
</linearGradient>
<linearGradient id="paint16_linear_2554_22395" x1="14.7262" y1="71.3706" x2="-26.0057" y2="125.531" gradientUnits="userSpaceOnUse">
<stop offset="0.28" stop-color="#BFC4FF"/>
<stop offset="1" stop-color="#7272F7"/>
</linearGradient>
<linearGradient id="paint17_linear_2554_22395" x1="5.71873" y1="84.7092" x2="6.59625" y2="69.3928" gradientUnits="userSpaceOnUse">
<stop offset="0.28" stop-color="#E7E8FF"/>
<stop offset="1" stop-color="#B4B5FF"/>
</linearGradient>
<linearGradient id="paint18_linear_2554_22395" x1="5.99022" y1="96.95" x2="6.86023" y2="81.6411" gradientUnits="userSpaceOnUse">
<stop offset="0.28" stop-color="#E7E8FF"/>
<stop offset="1" stop-color="#B4B5FF"/>
</linearGradient>
<linearGradient id="paint19_linear_2554_22395" x1="6.25194" y1="109.197" x2="7.12945" y2="93.8811" gradientUnits="userSpaceOnUse">
<stop offset="0.28" stop-color="#E7E8FF"/>
<stop offset="1" stop-color="#B4B5FF"/>
</linearGradient>
<linearGradient id="paint20_linear_2554_22395" x1="6.52342" y1="121.438" x2="7.39343" y2="106.129" gradientUnits="userSpaceOnUse">
<stop offset="0.28" stop-color="#E7E8FF"/>
<stop offset="1" stop-color="#B4B5FF"/>
</linearGradient>
<linearGradient id="paint21_linear_2554_22395" x1="25.0172" y1="99.1865" x2="25.58" y2="83.1206" gradientUnits="userSpaceOnUse">
<stop offset="0.28" stop-color="#BFC4FF"/>
<stop offset="1" stop-color="#7272F7"/>
</linearGradient>
<linearGradient id="paint22_linear_2554_22395" x1="87.4356" y1="68.2432" x2="11.3225" y2="158.165" gradientUnits="userSpaceOnUse">
<stop offset="0.28" stop-color="#BFC4FF"/>
<stop offset="1" stop-color="#7272F7"/>
</linearGradient>
<linearGradient id="paint23_linear_2554_22395" x1="53.8989" y1="98.3065" x2="53.9665" y2="89.2432" gradientUnits="userSpaceOnUse">
<stop offset="0.28" stop-color="#BFC4FF"/>
<stop offset="1" stop-color="#7272F7"/>
</linearGradient>
<linearGradient id="paint24_linear_2554_22395" x1="57.9657" y1="96.3793" x2="39.8021" y2="129.044" gradientUnits="userSpaceOnUse">
<stop offset="0.28" stop-color="#BFC4FF"/>
<stop offset="1" stop-color="#7272F7"/>
</linearGradient>
<linearGradient id="paint25_linear_2554_22395" x1="61.7447" y1="98.4846" x2="43.5811" y2="131.142" gradientUnits="userSpaceOnUse">
<stop offset="0.28" stop-color="#BFC4FF"/>
<stop offset="1" stop-color="#7272F7"/>
</linearGradient>
<linearGradient id="paint26_linear_2554_22395" x1="65.2334" y1="100.424" x2="47.0773" y2="133.089" gradientUnits="userSpaceOnUse">
<stop offset="0.28" stop-color="#BFC4FF"/>
<stop offset="1" stop-color="#7272F7"/>
</linearGradient>
<linearGradient id="paint27_linear_2554_22395" x1="68.8482" y1="102.432" x2="50.6846" y2="135.097" gradientUnits="userSpaceOnUse">
<stop offset="0.28" stop-color="#BFC4FF"/>
<stop offset="1" stop-color="#7272F7"/>
</linearGradient>
<linearGradient id="paint28_linear_2554_22395" x1="29.926" y1="105.282" x2="13.9512" y2="131.146" gradientUnits="userSpaceOnUse">
<stop offset="0.28" stop-color="#E7E8FF"/>
<stop offset="1" stop-color="#B4B5FF"/>
</linearGradient>
<linearGradient id="paint29_linear_2554_22395" x1="20.2539" y1="118.147" x2="23.5933" y2="118.147" gradientUnits="userSpaceOnUse">
<stop offset="0.28" stop-color="#BFC4FF"/>
<stop offset="1" stop-color="#7272F7"/>
</linearGradient>
<linearGradient id="paint30_linear_2554_22395" x1="20.2539" y1="114.148" x2="23.6234" y2="114.148" gradientUnits="userSpaceOnUse">
<stop offset="0.28" stop-color="#BFC4FF"/>
<stop offset="1" stop-color="#7272F7"/>
</linearGradient>
<linearGradient id="paint31_linear_2554_22395" x1="36.5825" y1="105.274" x2="20.6078" y2="131.146" gradientUnits="userSpaceOnUse">
<stop offset="0.28" stop-color="#E7E8FF"/>
<stop offset="1" stop-color="#B4B5FF"/>
</linearGradient>
<linearGradient id="paint32_linear_2554_22395" x1="26.918" y1="118.147" x2="30.2573" y2="118.147" gradientUnits="userSpaceOnUse">
<stop offset="0.28" stop-color="#BFC4FF"/>
<stop offset="1" stop-color="#7272F7"/>
</linearGradient>
<linearGradient id="paint33_linear_2554_22395" x1="26.918" y1="114.148" x2="30.2799" y2="114.148" gradientUnits="userSpaceOnUse">
<stop offset="0.28" stop-color="#BFC4FF"/>
<stop offset="1" stop-color="#7272F7"/>
</linearGradient>
<linearGradient id="paint34_linear_2554_22395" x1="132.947" y1="78.5286" x2="94.2132" y2="84.075" gradientUnits="userSpaceOnUse">
<stop offset="0.28" stop-color="#BFC4FF"/>
<stop offset="1" stop-color="#7272F7"/>
</linearGradient>
<linearGradient id="paint35_linear_2554_22395" x1="128.144" y1="46.6707" x2="94.8036" y2="142.545" gradientUnits="userSpaceOnUse">
<stop offset="0.28" stop-color="#BFC4FF"/>
<stop offset="1" stop-color="#7272F7"/>
</linearGradient>
<linearGradient id="paint36_linear_2554_22395" x1="114.027" y1="30.4828" x2="98.1956" y2="56.8422" gradientUnits="userSpaceOnUse">
<stop offset="0.28" stop-color="#BFC4FF"/>
<stop offset="1" stop-color="#7272F7"/>
</linearGradient>
<linearGradient id="paint37_linear_2554_22395" x1="115.925" y1="125.943" x2="115.393" y2="113.942" gradientUnits="userSpaceOnUse">
<stop offset="0.28" stop-color="#E7E8FF"/>
<stop offset="1" stop-color="#B4B5FF"/>
</linearGradient>
<linearGradient id="paint38_linear_2554_22395" x1="153.93" y1="57.716" x2="126.524" y2="132.627" gradientUnits="userSpaceOnUse">
<stop offset="0.28" stop-color="#BFC4FF"/>
<stop offset="1" stop-color="#7272F7"/>
</linearGradient>
<linearGradient id="paint39_linear_2554_22395" x1="140.294" y1="73.4533" x2="122.486" y2="110.001" gradientUnits="userSpaceOnUse">
<stop offset="0.28" stop-color="#BFC4FF"/>
<stop offset="1" stop-color="#7272F7"/>
</linearGradient>
<linearGradient id="paint40_linear_2554_22395" x1="141.074" y1="70.3402" x2="122.456" y2="88.6434" gradientUnits="userSpaceOnUse">
<stop offset="0.28" stop-color="#BFC4FF"/>
<stop offset="1" stop-color="#7272F7"/>
</linearGradient>
<linearGradient id="paint41_linear_2554_22395" x1="132.322" y1="71.3026" x2="117.403" y2="93.1353" gradientUnits="userSpaceOnUse">
<stop offset="0.28" stop-color="#BFC4FF"/>
<stop offset="1" stop-color="#7272F7"/>
</linearGradient>
<linearGradient id="paint42_linear_2554_22395" x1="864.315" y1="163.35" x2="841.56" y2="131.796" gradientUnits="userSpaceOnUse">
<stop offset="0.28" stop-color="#BFC4FF"/>
<stop offset="1" stop-color="#7272F7"/>
</linearGradient>
<linearGradient id="paint43_linear_2554_22395" x1="889.398" y1="145.247" x2="866.643" y2="113.7" gradientUnits="userSpaceOnUse">
<stop offset="0.28" stop-color="#BFC4FF"/>
<stop offset="1" stop-color="#7272F7"/>
</linearGradient>
<linearGradient id="paint44_linear_2554_22395" x1="909.704" y1="117.865" x2="922.349" y2="117.865" gradientUnits="userSpaceOnUse">
<stop offset="0.28" stop-color="#BFC4FF"/>
<stop offset="1" stop-color="#7272F7"/>
</linearGradient>
<linearGradient id="paint45_linear_2554_22395" x1="817.701" y1="103.073" x2="940.737" y2="103.073" gradientUnits="userSpaceOnUse">
<stop offset="0.28" stop-color="#BFC4FF"/>
<stop offset="1" stop-color="#7272F7"/>
</linearGradient>
<linearGradient id="paint46_linear_2554_22395" x1="879.608" y1="69.4284" x2="907.021" y2="132.1" gradientUnits="userSpaceOnUse">
<stop offset="0.28" stop-color="#BFC4FF"/>
<stop offset="1" stop-color="#7272F7"/>
</linearGradient>
<linearGradient id="paint47_linear_2554_22395" x1="893.071" y1="99.7624" x2="903.356" y2="123.276" gradientUnits="userSpaceOnUse">
<stop offset="0.28" stop-color="#BFC4FF"/>
<stop offset="1" stop-color="#7272F7"/>
</linearGradient>
<linearGradient id="paint48_linear_2554_22395" x1="853.087" y1="66.4303" x2="878.992" y2="93.6461" gradientUnits="userSpaceOnUse">
<stop offset="0.28" stop-color="#BFC4FF"/>
<stop offset="1" stop-color="#7272F7"/>
</linearGradient>
<linearGradient id="paint49_linear_2554_22395" x1="830.353" y1="101.275" x2="808.26" y2="122.389" gradientUnits="userSpaceOnUse">
<stop offset="0.28" stop-color="#BFC4FF"/>
<stop offset="1" stop-color="#7272F7"/>
</linearGradient>
<linearGradient id="paint50_linear_2554_22395" x1="858.451" y1="99.1589" x2="855.621" y2="125.767" gradientUnits="userSpaceOnUse">
<stop offset="0.28" stop-color="#BFC4FF"/>
<stop offset="1" stop-color="#7272F7"/>
</linearGradient>
<linearGradient id="paint51_linear_2554_22395" x1="821.394" y1="94.8671" x2="840.855" y2="119.447" gradientUnits="userSpaceOnUse">
<stop offset="0.28" stop-color="#BFC4FF"/>
<stop offset="1" stop-color="#7272F7"/>
</linearGradient>
<linearGradient id="paint52_linear_2554_22395" x1="884.297" y1="85.8912" x2="906.83" y2="85.8912" gradientUnits="userSpaceOnUse">
<stop offset="0.28" stop-color="#BDC3FF"/>
<stop offset="1" stop-color="#7272FF"/>
</linearGradient>
<linearGradient id="paint53_linear_2554_22395" x1="195.798" y1="32.4971" x2="245.17" y2="129.886" gradientUnits="userSpaceOnUse">
<stop offset="0.28" stop-color="#BFC4FF"/>
<stop offset="1" stop-color="#7272F7"/>
</linearGradient>
<linearGradient id="paint54_linear_2554_22395" x1="246.447" y1="51.0433" x2="201.122" y2="81.0043" gradientUnits="userSpaceOnUse">
<stop offset="0.28" stop-color="#E7E8FF"/>
<stop offset="1" stop-color="#B4B5FF"/>
</linearGradient>
<linearGradient id="paint55_linear_2554_22395" x1="249.179" y1="55.1748" x2="203.854" y2="85.1357" gradientUnits="userSpaceOnUse">
<stop offset="0.28" stop-color="#E7E8FF"/>
<stop offset="1" stop-color="#B4B5FF"/>
</linearGradient>
<linearGradient id="paint56_linear_2554_22395" x1="251.787" y1="59.1147" x2="206.462" y2="89.0757" gradientUnits="userSpaceOnUse">
<stop offset="0.28" stop-color="#E7E8FF"/>
<stop offset="1" stop-color="#B4B5FF"/>
</linearGradient>
<linearGradient id="paint57_linear_2554_22395" x1="240.372" y1="74.7978" x2="217.701" y2="86.7234" gradientUnits="userSpaceOnUse">
<stop offset="0.28" stop-color="#E7E8FF"/>
<stop offset="1" stop-color="#B4B5FF"/>
</linearGradient>
<linearGradient id="paint58_linear_2554_22395" x1="240.372" y1="80.3802" x2="217.701" y2="92.3016" gradientUnits="userSpaceOnUse">
<stop offset="0.28" stop-color="#E7E8FF"/>
<stop offset="1" stop-color="#B4B5FF"/>
</linearGradient>
<linearGradient id="paint59_linear_2554_22395" x1="233.497" y1="38.0577" x2="187.653" y2="130.781" gradientUnits="userSpaceOnUse">
<stop offset="0.28" stop-color="#BFC4FF"/>
<stop offset="1" stop-color="#7272F7"/>
</linearGradient>
<linearGradient id="paint60_linear_2554_22395" x1="172.468" y1="54.3351" x2="219.459" y2="127.97" gradientUnits="userSpaceOnUse">
<stop offset="0.28" stop-color="#BFC4FF"/>
<stop offset="1" stop-color="#7272F7"/>
</linearGradient>
<linearGradient id="paint61_linear_2554_22395" x1="200.227" y1="53.9044" x2="182.914" y2="87.6544" gradientUnits="userSpaceOnUse">
<stop offset="0.28" stop-color="#BFC4FF"/>
<stop offset="1" stop-color="#7272F7"/>
</linearGradient>
<linearGradient id="paint62_linear_2554_22395" x1="210.253" y1="83.0433" x2="174.89" y2="104.795" gradientUnits="userSpaceOnUse">
<stop offset="0.28" stop-color="#BFC4FF"/>
<stop offset="1" stop-color="#7272F7"/>
</linearGradient>
<linearGradient id="paint63_linear_2554_22395" x1="202.745" y1="89.811" x2="185.337" y2="112.651" gradientUnits="userSpaceOnUse">
<stop offset="0.28" stop-color="#BFC4FF"/>
<stop offset="1" stop-color="#7272F7"/>
</linearGradient>
<linearGradient id="paint64_linear_2554_22395" x1="222.296" y1="81.3075" x2="188.744" y2="86.8743" gradientUnits="userSpaceOnUse">
<stop offset="0.28" stop-color="#BFC4FF"/>
<stop offset="1" stop-color="#7272F7"/>
</linearGradient>
<linearGradient id="paint65_linear_2554_22395" x1="277.961" y1="100.596" x2="262.597" y2="120.421" gradientUnits="userSpaceOnUse">
<stop offset="0.28" stop-color="#BFC4FF"/>
<stop offset="1" stop-color="#7272F7"/>
</linearGradient>
<linearGradient id="paint66_linear_2554_22395" x1="164.195" y1="78.3227" x2="194.637" y2="119.697" gradientUnits="userSpaceOnUse">
<stop offset="0.28" stop-color="#BFC4FF"/>
<stop offset="1" stop-color="#7272F7"/>
</linearGradient>
<linearGradient id="paint67_linear_2554_22395" x1="180.458" y1="107.734" x2="191.937" y2="108.669" gradientUnits="userSpaceOnUse">
<stop offset="0.28" stop-color="#9DA1FF" stop-opacity="0"/>
<stop offset="1" stop-color="#7272F7"/>
</linearGradient>
<linearGradient id="paint68_linear_2554_22395" x1="189.3" y1="94.3313" x2="166.199" y2="125.049" gradientUnits="userSpaceOnUse">
<stop offset="0.28" stop-color="#BFC4FF"/>
<stop offset="1" stop-color="#7272F7"/>
</linearGradient>
<linearGradient id="paint69_linear_2554_22395" x1="184.193" y1="101.897" x2="184.69" y2="93.2099" gradientUnits="userSpaceOnUse">
<stop offset="0.28" stop-color="#E7E8FF"/>
<stop offset="1" stop-color="#B4B5FF"/>
</linearGradient>
<linearGradient id="paint70_linear_2554_22395" x1="184.345" y1="108.839" x2="184.839" y2="100.157" gradientUnits="userSpaceOnUse">
<stop offset="0.28" stop-color="#E7E8FF"/>
<stop offset="1" stop-color="#B4B5FF"/>
</linearGradient>
<linearGradient id="paint71_linear_2554_22395" x1="184.496" y1="115.785" x2="184.993" y2="107.099" gradientUnits="userSpaceOnUse">
<stop offset="0.28" stop-color="#E7E8FF"/>
<stop offset="1" stop-color="#B4B5FF"/>
</linearGradient>
<linearGradient id="paint72_linear_2554_22395" x1="184.648" y1="122.727" x2="185.141" y2="114.045" gradientUnits="userSpaceOnUse">
<stop offset="0.28" stop-color="#E7E8FF"/>
<stop offset="1" stop-color="#B4B5FF"/>
</linearGradient>
<linearGradient id="paint73_linear_2554_22395" x1="195.139" y1="110.107" x2="195.458" y2="100.995" gradientUnits="userSpaceOnUse">
<stop offset="0.28" stop-color="#BFC4FF"/>
<stop offset="1" stop-color="#7272F7"/>
</linearGradient>
<linearGradient id="paint74_linear_2554_22395" x1="230.538" y1="92.557" x2="187.37" y2="143.556" gradientUnits="userSpaceOnUse">
<stop offset="0.28" stop-color="#BFC4FF"/>
<stop offset="1" stop-color="#7272F7"/>
</linearGradient>
<linearGradient id="paint75_linear_2554_22395" x1="211.517" y1="109.607" x2="211.556" y2="104.467" gradientUnits="userSpaceOnUse">
<stop offset="0.28" stop-color="#BFC4FF"/>
<stop offset="1" stop-color="#7272F7"/>
</linearGradient>
<linearGradient id="paint76_linear_2554_22395" x1="213.825" y1="108.515" x2="203.523" y2="127.041" gradientUnits="userSpaceOnUse">
<stop offset="0.28" stop-color="#BFC4FF"/>
<stop offset="1" stop-color="#7272F7"/>
</linearGradient>
<linearGradient id="paint77_linear_2554_22395" x1="215.968" y1="109.709" x2="205.667" y2="128.23" gradientUnits="userSpaceOnUse">
<stop offset="0.28" stop-color="#BFC4FF"/>
<stop offset="1" stop-color="#7272F7"/>
</linearGradient>
<linearGradient id="paint78_linear_2554_22395" x1="217.948" y1="110.809" x2="207.651" y2="129.335" gradientUnits="userSpaceOnUse">
<stop offset="0.28" stop-color="#BFC4FF"/>
<stop offset="1" stop-color="#7272F7"/>
</linearGradient>
<linearGradient id="paint79_linear_2554_22395" x1="219.999" y1="111.947" x2="209.698" y2="130.473" gradientUnits="userSpaceOnUse">
<stop offset="0.28" stop-color="#BFC4FF"/>
<stop offset="1" stop-color="#7272F7"/>
</linearGradient>
<linearGradient id="paint80_linear_2554_22395" x1="197.925" y1="113.563" x2="188.865" y2="128.232" gradientUnits="userSpaceOnUse">
<stop offset="0.28" stop-color="#E7E8FF"/>
<stop offset="1" stop-color="#B4B5FF"/>
</linearGradient>
<linearGradient id="paint81_linear_2554_22395" x1="192.439" y1="120.86" x2="194.333" y2="120.86" gradientUnits="userSpaceOnUse">
<stop offset="0.28" stop-color="#BFC4FF"/>
<stop offset="1" stop-color="#7272F7"/>
</linearGradient>
<linearGradient id="paint82_linear_2554_22395" x1="192.439" y1="118.591" x2="194.35" y2="118.591" gradientUnits="userSpaceOnUse">
<stop offset="0.28" stop-color="#BFC4FF"/>
<stop offset="1" stop-color="#7272F7"/>
</linearGradient>
<linearGradient id="paint83_linear_2554_22395" x1="201.702" y1="113.559" x2="192.642" y2="128.232" gradientUnits="userSpaceOnUse">
<stop offset="0.28" stop-color="#E7E8FF"/>
<stop offset="1" stop-color="#B4B5FF"/>
</linearGradient>
<linearGradient id="paint84_linear_2554_22395" x1="196.221" y1="120.86" x2="198.115" y2="120.86" gradientUnits="userSpaceOnUse">
<stop offset="0.28" stop-color="#BFC4FF"/>
<stop offset="1" stop-color="#7272F7"/>
</linearGradient>
<linearGradient id="paint85_linear_2554_22395" x1="196.221" y1="118.591" x2="198.127" y2="118.591" gradientUnits="userSpaceOnUse">
<stop offset="0.28" stop-color="#BFC4FF"/>
<stop offset="1" stop-color="#7272F7"/>
</linearGradient>
<linearGradient id="paint86_linear_2554_22395" x1="256.35" y1="98.3908" x2="234.382" y2="101.536" gradientUnits="userSpaceOnUse">
<stop offset="0.28" stop-color="#BFC4FF"/>
<stop offset="1" stop-color="#7272F7"/>
</linearGradient>
<linearGradient id="paint87_linear_2554_22395" x1="253.626" y1="80.3225" x2="234.717" y2="134.698" gradientUnits="userSpaceOnUse">
<stop offset="0.28" stop-color="#BFC4FF"/>
<stop offset="1" stop-color="#7272F7"/>
</linearGradient>
<linearGradient id="paint88_linear_2554_22395" x1="245.62" y1="71.1417" x2="236.641" y2="86.0915" gradientUnits="userSpaceOnUse">
<stop offset="0.28" stop-color="#BFC4FF"/>
<stop offset="1" stop-color="#7272F7"/>
</linearGradient>
<linearGradient id="paint89_linear_2554_22395" x1="246.694" y1="125.282" x2="246.392" y2="118.476" gradientUnits="userSpaceOnUse">
<stop offset="0.28" stop-color="#E7E8FF"/>
<stop offset="1" stop-color="#B4B5FF"/>
</linearGradient>
<linearGradient id="paint90_linear_2554_22395" x1="268.247" y1="86.5867" x2="252.703" y2="129.073" gradientUnits="userSpaceOnUse">
<stop offset="0.28" stop-color="#BFC4FF"/>
<stop offset="1" stop-color="#7272F7"/>
</linearGradient>
<linearGradient id="paint91_linear_2554_22395" x1="260.513" y1="95.5121" x2="250.413" y2="116.24" gradientUnits="userSpaceOnUse">
<stop offset="0.28" stop-color="#BFC4FF"/>
<stop offset="1" stop-color="#7272F7"/>
</linearGradient>
<linearGradient id="paint92_linear_2554_22395" x1="260.956" y1="93.7471" x2="250.397" y2="104.128" gradientUnits="userSpaceOnUse">
<stop offset="0.28" stop-color="#BFC4FF"/>
<stop offset="1" stop-color="#7272F7"/>
</linearGradient>
<linearGradient id="paint93_linear_2554_22395" x1="255.992" y1="94.293" x2="247.531" y2="106.675" gradientUnits="userSpaceOnUse">
<stop offset="0.28" stop-color="#BFC4FF"/>
<stop offset="1" stop-color="#7272F7"/>
</linearGradient>
<clipPath id="clip0_2554_22395">
<rect width="58.4792" height="108.43" fill="white" transform="translate(884.297 16.6411)"/>
</clipPath>
</defs>
</svg>
